<svg xmlns="http://www.w3.org/2000/svg" xmlns:xlink="http://www.w3.org/1999/xlink" width="500" zoomAndPan="magnify" viewBox="0 0 375 374.999991" height="500" preserveAspectRatio="xMidYMid meet" version="1.0"><defs><clipPath id="57852c8d45"><path d="M 0 0 L 375 0 L 375 269.25 L 0 269.25 Z M 0 0 " clip-rule="nonzero"/></clipPath><clipPath id="42fae8dc00"><path d="M 17.25 0 L 357.75 0 C 362.324219 0 366.710938 1.816406 369.945312 5.050781 C 373.183594 8.289062 375 12.675781 375 17.25 L 375 251.871094 C 375 256.445312 373.183594 260.832031 369.945312 264.070312 C 366.710938 267.304688 362.324219 269.121094 357.75 269.121094 L 17.25 269.121094 C 12.675781 269.121094 8.289062 267.304688 5.054688 264.070312 C 1.816406 260.832031 0 256.445312 0 251.871094 L 0 17.25 C 0 12.675781 1.816406 8.289062 5.054688 5.050781 C 8.289062 1.816406 12.675781 0 17.25 0 Z M 17.25 0 " clip-rule="nonzero"/></clipPath><clipPath id="85df0bffa1"><path d="M 64.578125 301.476562 L 310.558594 301.476562 L 310.558594 374.976562 L 64.578125 374.976562 Z M 64.578125 301.476562 " clip-rule="nonzero"/></clipPath><clipPath id="b86c537148"><path d="M 83.324219 301.476562 L 291.675781 301.476562 C 302.027344 301.476562 310.421875 309.871094 310.421875 320.222656 L 310.421875 356.242188 C 310.421875 366.59375 302.027344 374.988281 291.675781 374.988281 L 83.324219 374.988281 C 72.972656 374.988281 64.578125 366.59375 64.578125 356.242188 L 64.578125 320.222656 C 64.578125 309.871094 72.972656 301.476562 83.324219 301.476562 Z M 83.324219 301.476562 " clip-rule="nonzero"/></clipPath><clipPath id="0caf54b9db"><path d="M 119.328125 246.253906 L 255.664062 246.253906 L 255.664062 323.5 L 119.328125 323.5 Z M 119.328125 246.253906 " clip-rule="nonzero"/></clipPath><clipPath id="ed47453ecc"><path d="M 56.035156 43.886719 L 119 43.886719 L 119 66.636719 L 56.035156 66.636719 Z M 56.035156 43.886719 " clip-rule="nonzero"/></clipPath><clipPath id="42b6e02b5a"><path d="M 67.410156 43.886719 L 107.601562 43.886719 C 113.882812 43.886719 118.976562 48.976562 118.976562 55.261719 C 118.976562 61.542969 113.882812 66.636719 107.601562 66.636719 L 67.410156 66.636719 C 61.128906 66.636719 56.035156 61.542969 56.035156 55.261719 C 56.035156 48.976562 61.128906 43.886719 67.410156 43.886719 Z M 67.410156 43.886719 " clip-rule="nonzero"/></clipPath><clipPath id="1c88ebfcfd"><path d="M 56.035156 96.75 L 195.394531 96.75 L 195.394531 119.503906 L 56.035156 119.503906 Z M 56.035156 96.75 " clip-rule="nonzero"/></clipPath><clipPath id="6d610a69fc"><path d="M 67.410156 96.75 L 184 96.75 C 190.28125 96.75 195.375 101.84375 195.375 108.128906 C 195.375 114.410156 190.28125 119.503906 184 119.503906 L 67.410156 119.503906 C 61.128906 119.503906 56.035156 114.410156 56.035156 108.128906 C 56.035156 101.84375 61.128906 96.75 67.410156 96.75 Z M 67.410156 96.75 " clip-rule="nonzero"/></clipPath><clipPath id="74dabc085c"><path d="M 56.035156 149.617188 L 157.445312 149.617188 L 157.445312 172.371094 L 56.035156 172.371094 Z M 56.035156 149.617188 " clip-rule="nonzero"/></clipPath><clipPath id="7f58c9bef9"><path d="M 67.410156 149.617188 L 146 149.617188 C 152.28125 149.617188 157.375 154.710938 157.375 160.996094 C 157.375 167.277344 152.28125 172.371094 146 172.371094 L 67.410156 172.371094 C 61.128906 172.371094 56.035156 167.277344 56.035156 160.996094 C 56.035156 154.710938 61.128906 149.617188 67.410156 149.617188 Z M 67.410156 149.617188 " clip-rule="nonzero"/></clipPath><clipPath id="8b953ce098"><path d="M 56.035156 202.484375 L 251.300781 202.484375 L 251.300781 225.238281 L 56.035156 225.238281 Z M 56.035156 202.484375 " clip-rule="nonzero"/></clipPath><clipPath id="cfd20d7d39"><path d="M 67.410156 202.484375 L 239.890625 202.484375 C 246.171875 202.484375 251.265625 207.578125 251.265625 213.859375 C 251.265625 220.144531 246.171875 225.238281 239.890625 225.238281 L 67.410156 225.238281 C 61.128906 225.238281 56.035156 220.144531 56.035156 213.859375 C 56.035156 207.578125 61.128906 202.484375 67.410156 202.484375 Z M 67.410156 202.484375 " clip-rule="nonzero"/></clipPath></defs><g clip-path="url(#57852c8d45)"><g clip-path="url(#42fae8dc00)"><path stroke-linecap="butt" transform="matrix(0.75, 0, 0, 0.75, 0.000577062, 0.000000000000021316)" fill="none" stroke-linejoin="miter" d="M 22.999232 -0.000000000000028422 L 476.999262 -0.000000000000028422 C 483.098221 -0.000000000000028422 488.947179 2.421875 493.25968 6.734375 C 497.577388 11.052084 499.999263 16.901043 499.999263 23.000002 L 499.999263 335.828147 C 499.999263 341.927106 497.577388 347.776065 493.25968 352.093773 C 488.947179 356.406273 483.098221 358.828149 476.999262 358.828149 L 22.999232 358.828149 C 16.900273 358.828149 11.051315 356.406273 6.738814 352.093773 C 2.421106 347.776065 -0.000769416 341.927106 -0.000769416 335.828147 L -0.000769416 23.000002 C -0.000769416 16.901043 2.421106 11.052084 6.738814 6.734375 C 11.051315 2.421875 16.900273 -0.000000000000028422 22.999232 -0.000000000000028422 Z M 22.999232 -0.000000000000028422 " stroke="#000000" stroke-width="60" stroke-opacity="1" stroke-miterlimit="4"/></g></g><g clip-path="url(#85df0bffa1)"><g clip-path="url(#b86c537148)"><path stroke-linecap="butt" transform="matrix(0.75, 0, 0, 0.75, 64.577652, 301.476777)" fill="none" stroke-linejoin="miter" d="M 24.995425 -0.000286004 L 302.797545 -0.000286004 C 316.59963 -0.000286004 327.792339 11.192424 327.792339 24.994509 L 327.792339 73.020557 C 327.792339 86.822642 316.59963 98.015352 302.797545 98.015352 L 24.995425 98.015352 C 11.19334 98.015352 0.000630321 86.822642 0.000630321 73.020557 L 0.000630321 24.994509 C 0.000630321 11.192424 11.19334 -0.000286004 24.995425 -0.000286004 Z M 24.995425 -0.000286004 " stroke="#000000" stroke-width="60" stroke-opacity="1" stroke-miterlimit="4"/></g></g><g clip-path="url(#0caf54b9db)"><path stroke-linecap="butt" transform="matrix(0.75, 0, 0, 0.75, 119.326578, 246.253489)" fill="none" stroke-linejoin="miter" d="M 0.00206231 0.000556828 L 181.783324 0.000556828 L 181.783324 103.021397 L 0.00206231 103.021397 Z M 0.00206231 0.000556828 " stroke="#000000" stroke-width="60" stroke-opacity="1" stroke-miterlimit="4"/></g><g clip-path="url(#ed47453ecc)"><g clip-path="url(#42b6e02b5a)"><path fill="#000000" d="M 56.035156 43.886719 L 118.960938 43.886719 L 118.960938 66.636719 L 56.035156 66.636719 Z M 56.035156 43.886719 " fill-opacity="1" fill-rule="nonzero"/></g></g><g clip-path="url(#1c88ebfcfd)"><g clip-path="url(#6d610a69fc)"><path fill="#000000" d="M 56.035156 96.75 L 195.394531 96.75 L 195.394531 119.503906 L 56.035156 119.503906 Z M 56.035156 96.75 " fill-opacity="1" fill-rule="nonzero"/></g></g><g clip-path="url(#74dabc085c)"><g clip-path="url(#7f58c9bef9)"><path fill="#000000" d="M 56.035156 149.617188 L 157.355469 149.617188 L 157.355469 172.371094 L 56.035156 172.371094 Z M 56.035156 149.617188 " fill-opacity="1" fill-rule="nonzero"/></g></g><g clip-path="url(#8b953ce098)"><g clip-path="url(#cfd20d7d39)"><path fill="#000000" d="M 56.035156 202.484375 L 251.300781 202.484375 L 251.300781 225.238281 L 56.035156 225.238281 Z M 56.035156 202.484375 " fill-opacity="1" fill-rule="nonzero"/></g></g></svg>