<svg xmlns="http://www.w3.org/2000/svg" xmlns:xlink="http://www.w3.org/1999/xlink" width="500" zoomAndPan="magnify" viewBox="0 0 375 374.999991" height="500" preserveAspectRatio="xMidYMid meet" version="1.0"><defs><clipPath id="088dad78a9"><path d="M 70.242188 0.00390625 L 297.492188 0.00390625 L 297.492188 375 L 70.242188 375 Z M 70.242188 0.00390625 " clip-rule="nonzero"/></clipPath><clipPath id="80d4ee5925"><path d="M 87.492188 0.00390625 L 280.300781 0.00390625 C 284.875 0.00390625 289.265625 1.820312 292.5 5.054688 C 295.734375 8.289062 297.550781 12.679688 297.550781 17.253906 L 297.550781 357.746094 C 297.550781 362.320312 295.734375 366.710938 292.5 369.945312 C 289.265625 373.179688 284.875 374.996094 280.300781 374.996094 L 87.492188 374.996094 C 82.917969 374.996094 78.53125 373.179688 75.296875 369.945312 C 72.058594 366.710938 70.242188 362.320312 70.242188 357.746094 L 70.242188 17.253906 C 70.242188 12.679688 72.058594 8.289062 75.296875 5.054688 C 78.53125 1.820312 82.917969 0.00390625 87.492188 0.00390625 Z M 87.492188 0.00390625 " clip-rule="nonzero"/></clipPath><clipPath id="3c9464ae8e"><path d="M 137.382812 245.019531 L 237.613281 245.019531 L 237.613281 345.25 L 137.382812 345.25 Z M 137.382812 245.019531 " clip-rule="nonzero"/></clipPath><clipPath id="6c6b05f509"><path d="M 187.496094 245.019531 C 159.820312 245.019531 137.382812 267.457031 137.382812 295.132812 C 137.382812 322.8125 159.820312 345.25 187.496094 345.25 C 215.175781 345.25 237.613281 322.8125 237.613281 295.132812 C 237.613281 267.457031 215.175781 245.019531 187.496094 245.019531 Z M 187.496094 245.019531 " clip-rule="nonzero"/></clipPath><clipPath id="aabab5cf8d"><path d="M 137.382812 137.304688 L 237.613281 137.304688 L 237.613281 237.535156 L 137.382812 237.535156 Z M 137.382812 137.304688 " clip-rule="nonzero"/></clipPath><clipPath id="f7b79a54e6"><path d="M 187.496094 137.304688 C 159.820312 137.304688 137.382812 159.742188 137.382812 187.417969 C 137.382812 215.097656 159.820312 237.535156 187.496094 237.535156 C 215.175781 237.535156 237.613281 215.097656 237.613281 187.417969 C 237.613281 159.742188 215.175781 137.304688 187.496094 137.304688 Z M 187.496094 137.304688 " clip-rule="nonzero"/></clipPath><clipPath id="fb34d73bd5"><path d="M 137.382812 29.589844 L 237.613281 29.589844 L 237.613281 129.820312 L 137.382812 129.820312 Z M 137.382812 29.589844 " clip-rule="nonzero"/></clipPath><clipPath id="c6cea0ed5c"><path d="M 187.496094 29.589844 C 159.820312 29.589844 137.382812 52.027344 137.382812 79.707031 C 137.382812 107.382812 159.820312 129.820312 187.496094 129.820312 C 215.175781 129.820312 237.613281 107.382812 237.613281 79.707031 C 237.613281 52.027344 215.175781 29.589844 187.496094 29.589844 Z M 187.496094 29.589844 " clip-rule="nonzero"/></clipPath></defs><g clip-path="url(#088dad78a9)"><g clip-path="url(#80d4ee5925)"><path stroke-linecap="butt" transform="matrix(0.75, 0, 0, 0.75, 70.242861, 0.00304406)" fill="none" stroke-linejoin="miter" d="M 22.999101 0.00114958 L 280.077227 0.00114958 C 286.176185 0.00114958 292.030352 2.423025 296.342852 6.735525 C 300.655352 11.048025 303.077227 16.902191 303.077227 23.00115 L 303.077227 476.990734 C 303.077227 483.089692 300.655352 488.943859 296.342852 493.256359 C 292.030352 497.568859 286.176185 499.990734 280.077227 499.990734 L 22.999101 499.990734 C 16.900143 499.990734 11.051185 497.568859 6.738685 493.256359 C 2.420976 488.943859 -0.00089865 483.089692 -0.00089865 476.990734 L -0.00089865 23.00115 C -0.00089865 16.902191 2.420976 11.048025 6.738685 6.735525 C 11.051185 2.423025 16.900143 0.00114958 22.999101 0.00114958 Z M 22.999101 0.00114958 " stroke="#000000" stroke-width="60" stroke-opacity="1" stroke-miterlimit="4"/></g></g><g clip-path="url(#3c9464ae8e)"><g clip-path="url(#6c6b05f509)"><path stroke-linecap="butt" transform="matrix(0.75, 0, 0, 0.75, 137.381832, 245.018451)" fill="none" stroke-linejoin="miter" d="M 66.81902 0.00144019 C 29.917976 0.00144019 0.00130696 29.918109 0.00130696 66.819153 C 0.00130696 103.725405 29.917976 133.642074 66.81902 133.642074 C 103.725272 133.642074 133.641941 103.725405 133.641941 66.819153 C 133.641941 29.918109 103.725272 0.00144019 66.81902 0.00144019 Z M 66.81902 0.00144019 " stroke="#000000" stroke-width="60" stroke-opacity="1" stroke-miterlimit="4"/></g></g><g clip-path="url(#aabab5cf8d)"><g clip-path="url(#f7b79a54e6)"><path stroke-linecap="butt" transform="matrix(0.75, 0, 0, 0.75, 137.381832, 137.304265)" fill="none" stroke-linejoin="miter" d="M 66.81902 0.000563888 C 29.917976 0.000563888 0.00130696 29.917233 0.00130696 66.818277 C 0.00130696 103.724529 29.917976 133.641198 66.81902 133.641198 C 103.725272 133.641198 133.641941 103.724529 133.641941 66.818277 C 133.641941 29.917233 103.725272 0.000563888 66.81902 0.000563888 Z M 66.81902 0.000563888 " stroke="#000000" stroke-width="60" stroke-opacity="1" stroke-miterlimit="4"/></g></g><g clip-path="url(#fb34d73bd5)"><g clip-path="url(#c6cea0ed5c)"><path stroke-linecap="butt" transform="matrix(0.75, 0, 0, 0.75, 137.381832, 29.590102)" fill="none" stroke-linejoin="miter" d="M 66.81902 -0.000344089 C 29.917976 -0.000344089 0.00130696 29.916325 0.00130696 66.822577 C 0.00130696 103.723621 29.917976 133.64029 66.81902 133.64029 C 103.725272 133.64029 133.641941 103.723621 133.641941 66.822577 C 133.641941 29.916325 103.725272 -0.000344089 66.81902 -0.000344089 Z M 66.81902 -0.000344089 " stroke="#000000" stroke-width="60" stroke-opacity="1" stroke-miterlimit="4"/></g></g></svg>