<svg xmlns="http://www.w3.org/2000/svg" xmlns:xlink="http://www.w3.org/1999/xlink" width="600" zoomAndPan="magnify" viewBox="0 0 450 225" height="300" preserveAspectRatio="xMidYMid meet" version="1.0"><defs><clipPath id="8df7bd2984"><path d="M 56.554688 48.195312 L 181.054688 48.195312 L 181.054688 176.441406 L 56.554688 176.441406 Z M 56.554688 48.195312 " clip-rule="nonzero"/></clipPath><clipPath id="cbd7b1d7bb"><path d="M 165.285156 48.191406 L 283.292969 48.191406 L 283.292969 176.808594 L 165.285156 176.808594 Z M 165.285156 48.191406 " clip-rule="nonzero"/></clipPath><clipPath id="d93519c1c5"><path d="M 165.285156 48.199219 L 283.035156 48.199219 L 283.035156 176.441406 L 165.285156 176.441406 Z M 165.285156 48.199219 " clip-rule="nonzero"/></clipPath><clipPath id="a47b93efa2"><path d="M 264.375 48.195312 L 393.375 48.195312 L 393.375 176.441406 L 264.375 176.441406 Z M 264.375 48.195312 " clip-rule="nonzero"/></clipPath></defs><g clip-path="url(#8df7bd2984)"><path stroke-linecap="butt" transform="matrix(0.75, 0, 0, 0.75, 56.55511, 48.193969)" fill="none" stroke-linejoin="miter" d="M -0.000562858 0.00179161 L 166.124444 0.00179161 L 166.124444 171.480965 L -0.000562858 171.480965 Z M -0.000562858 0.00179161 " stroke="#000000" stroke-width="60" stroke-opacity="1" stroke-miterlimit="4"/></g><g clip-path="url(#cbd7b1d7bb)"><path fill="#000000" d="M 165.285156 48.191406 L 283.292969 48.191406 L 283.292969 176.800781 L 165.285156 176.800781 Z M 165.285156 48.191406 " fill-opacity="1" fill-rule="nonzero"/></g><g clip-path="url(#d93519c1c5)"><path stroke-linecap="butt" transform="matrix(0.75, 0, 0, 0.75, 165.28555, 48.198039)" fill="none" stroke-linejoin="miter" d="M -0.000524884 0.00157274 L 157.327607 0.00157274 L 157.327607 171.47033 L -0.000524884 171.47033 Z M -0.000524884 0.00157274 " stroke="#000000" stroke-width="16" stroke-opacity="1" stroke-miterlimit="4"/></g><g clip-path="url(#a47b93efa2)"><path stroke-linecap="butt" transform="matrix(0.75, 0, 0, 0.75, 264.376307, 48.196998)" fill="none" stroke-linejoin="miter" d="M -0.00174211 -0.00224679 L 172.076379 -0.00224679 L 172.076379 171.471708 L -0.00174211 171.471708 Z M -0.00174211 -0.00224679 " stroke="#000000" stroke-width="60" stroke-opacity="1" stroke-miterlimit="4"/></g></svg>