<svg xmlns="http://www.w3.org/2000/svg" xmlns:xlink="http://www.w3.org/1999/xlink" width="500" zoomAndPan="magnify" viewBox="0 0 375 374.999991" height="500" preserveAspectRatio="xMidYMid meet" version="1.0"><defs><clipPath id="f9d08a564d"><path d="M 81.992188 0.0078125 L 292.742188 0.0078125 L 292.742188 375 L 81.992188 375 Z M 81.992188 0.0078125 " clip-rule="nonzero"/></clipPath><clipPath id="ff329c8cb9"><path d="M 99.242188 0.0078125 L 275.75 0.0078125 C 280.324219 0.0078125 284.710938 1.824219 287.945312 5.058594 C 291.183594 8.296875 293 12.683594 293 17.257812 L 293 357.742188 C 293 362.316406 291.183594 366.703125 287.945312 369.941406 C 284.710938 373.175781 280.324219 374.992188 275.75 374.992188 L 99.242188 374.992188 C 94.664062 374.992188 90.277344 373.175781 87.042969 369.941406 C 83.808594 366.703125 81.992188 362.316406 81.992188 357.742188 L 81.992188 17.257812 C 81.992188 12.683594 83.808594 8.296875 87.042969 5.058594 C 90.277344 1.824219 94.664062 0.0078125 99.242188 0.0078125 Z M 99.242188 0.0078125 " clip-rule="nonzero"/></clipPath><clipPath id="5ea34aa860"><path d="M 81.996094 55.945312 L 292.742188 55.945312 L 292.742188 132.140625 L 81.996094 132.140625 Z M 81.996094 55.945312 " clip-rule="nonzero"/></clipPath><clipPath id="f560b536a7"><path d="M 143.4375 249.371094 L 231.5625 249.371094 L 231.5625 337.496094 L 143.4375 337.496094 Z M 143.4375 249.371094 " clip-rule="nonzero"/></clipPath><clipPath id="b6efd0eda2"><path d="M 187.5 249.371094 C 163.164062 249.371094 143.4375 269.101562 143.4375 293.433594 C 143.4375 317.769531 163.164062 337.496094 187.5 337.496094 C 211.832031 337.496094 231.5625 317.769531 231.5625 293.433594 C 231.5625 269.101562 211.832031 249.371094 187.5 249.371094 Z M 187.5 249.371094 " clip-rule="nonzero"/></clipPath><clipPath id="7e38fb380c"><path d="M 81.996094 109.359375 L 292.742188 109.359375 L 292.742188 185.554688 L 81.996094 185.554688 Z M 81.996094 109.359375 " clip-rule="nonzero"/></clipPath></defs><g clip-path="url(#f9d08a564d)"><g clip-path="url(#ff329c8cb9)"><path stroke-linecap="butt" transform="matrix(0.75, 0, 0, 0.75, 81.991406, 0.00833548)" fill="none" stroke-linejoin="miter" d="M 23.001044 -0.00069731 L 258.34481 -0.00069731 C 264.443768 -0.00069731 270.292727 2.421178 274.605227 6.733678 C 278.922936 11.051387 281.344811 16.900345 281.344811 22.999304 L 281.344811 476.978501 C 281.344811 483.077459 278.922936 488.926418 274.605227 493.244127 C 270.292727 497.556627 264.443768 499.978502 258.34481 499.978502 L 23.001044 499.978502 C 16.896877 499.978502 11.047918 497.556627 6.735418 493.244127 C 2.422918 488.926418 0.00104265 483.077459 0.00104265 476.978501 L 0.00104265 22.999304 C 0.00104265 16.900345 2.422918 11.051387 6.735418 6.733678 C 11.047918 2.421178 16.896877 -0.00069731 23.001044 -0.00069731 Z M 23.001044 -0.00069731 " stroke="#000000" stroke-width="60" stroke-opacity="1" stroke-miterlimit="4"/></g></g><g clip-path="url(#5ea34aa860)"><path stroke-linecap="butt" transform="matrix(0.75, 0, 0, 0.75, 81.996182, 55.945343)" fill="none" stroke-linejoin="miter" d="M -0.000117021 -0.0000403017 L 281.333235 -0.0000403017 L 281.333235 101.593716 L -0.000117021 101.593716 Z M -0.000117021 -0.0000403017 " stroke="#000000" stroke-width="60" stroke-opacity="1" stroke-miterlimit="4"/></g><g clip-path="url(#f560b536a7)"><g clip-path="url(#b6efd0eda2)"><path stroke-linecap="butt" transform="matrix(0.75, 0, 0, 0.75, 143.436103, 249.3722)" fill="none" stroke-linejoin="miter" d="M 58.751866 -0.0014745 C 26.303948 -0.0014745 0.00186256 26.305819 0.00186256 58.748529 C 0.00186256 91.196448 26.303948 117.498533 58.751866 117.498533 C 91.194577 117.498533 117.50187 91.196448 117.50187 58.748529 C 117.50187 26.305819 91.194577 -0.0014745 58.751866 -0.0014745 Z M 58.751866 -0.0014745 " stroke="#000000" stroke-width="60" stroke-opacity="1" stroke-miterlimit="4"/></g></g><g clip-path="url(#7e38fb380c)"><path stroke-linecap="butt" transform="matrix(0.75, 0, 0, 0.75, 81.996182, 109.359149)" fill="none" stroke-linejoin="miter" d="M -0.000117021 0.000301575 L 281.333235 0.000301575 L 281.333235 101.594058 L -0.000117021 101.594058 Z M -0.000117021 0.000301575 " stroke="#000000" stroke-width="60" stroke-opacity="1" stroke-miterlimit="4"/></g></svg>